<svg width="800" height="630" viewBox="0 0 800 630" fill="none" xmlns="http://www.w3.org/2000/svg">
<path d="M95.6489 362.186H11.5886C5.19785 362.186 0 367.469 0 373.859V617.434C0 623.825 5.19785 629.023 11.5886 629.023H95.6489C102.04 629.023 107.238 623.825 107.238 617.434V373.859C107.28 367.469 102.082 362.186 95.6489 362.186Z" fill="#B9D31F"/>
<path d="M788.369 362.186H704.308C697.918 362.186 692.762 367.469 692.762 373.859V617.434C692.762 623.825 697.918 629.023 704.308 629.023H788.369C794.845 629.023 800 623.825 800 617.434V373.859C800 367.469 794.845 362.186 788.369 362.186Z" fill="#B9D31F"/>
<path d="M251.67 222.951H167.609C161.219 222.951 155.978 228.149 155.978 234.582V617.349C155.978 623.739 161.219 628.937 167.609 628.937H251.67C258.103 628.937 263.301 623.739 263.301 617.349V234.582C263.301 228.106 258.103 222.951 251.67 222.951Z" fill="#B9D31F"/>
<path d="M608.02 222.951H523.96C517.569 222.951 512.414 228.149 512.414 234.582V617.349C512.414 623.739 517.569 628.937 523.96 628.937H608.02C614.496 628.937 619.652 623.739 619.652 617.349V234.582C619.694 228.106 614.539 222.951 608.02 222.951Z" fill="#B9D31F"/>
<path d="M426.479 307.736H342.376C335.986 307.736 330.788 312.976 330.788 319.324V617.306C330.788 623.697 335.986 628.895 342.376 628.895H426.479C432.955 628.895 438.11 623.697 438.11 617.306V319.324C438.11 312.976 432.955 307.736 426.479 307.736Z" fill="#B9D31F"/>
<path d="M53.6401 210.979C78.3937 210.979 98.4183 190.955 98.4183 166.201C98.4183 161.898 97.6088 157.85 96.4584 153.931L190.659 86.1456C196.453 88.8723 202.844 90.4913 209.661 90.4913C222.826 90.4913 234.5 84.7396 242.722 75.7073L331.64 127.174C331.128 129.816 330.788 132.543 330.788 135.27C330.788 159.981 350.855 180.048 375.566 180.048C399.382 180.048 418.682 161.387 420.046 137.911L539.937 102.847C548.075 114.009 561.155 121.38 576.066 121.38C585.951 121.38 594.941 118.1 602.354 112.646L703.116 180.985C702.263 184.521 701.539 188.228 701.539 192.062C701.539 216.816 721.606 236.883 746.317 236.883C771.028 236.883 791.181 216.816 791.181 192.062C791.181 167.309 771.028 147.284 746.317 147.284C736.433 147.284 727.443 150.565 720.03 155.976L619.353 87.7646C620.206 84.1857 620.845 80.5217 620.845 76.6872C620.845 51.9335 600.863 31.909 576.066 31.909C552.25 31.909 532.95 50.5701 531.544 74.0457L411.695 109.067C403.558 97.862 390.435 90.5339 375.566 90.5339C364.531 90.5339 354.604 94.624 346.807 101.228L254.268 47.5878C254.268 46.9487 254.439 46.3948 254.439 45.7983C254.439 21.0446 234.414 0.977539 209.661 0.977539C184.907 0.977539 164.883 21.002 164.883 45.7557C164.883 52.4874 166.502 58.793 169.143 64.5447L79.0328 129.39C71.8325 124.363 63.0984 121.423 53.6401 121.423C28.8864 121.423 8.86188 141.49 8.86188 166.201C8.86188 190.955 28.8864 210.979 53.6401 210.979Z" fill="#B9D31F"/>
</svg>
